<?xml version="1.0" standalone="no"?>
<!DOCTYPE svg PUBLIC "-//W3C//DTD SVG 20010904//EN"
 "http://www.w3.org/TR/2001/REC-SVG-20010904/DTD/svg10.dtd">
<svg version="1.0" xmlns="http://www.w3.org/2000/svg"
 width="217.000000pt" height="218.000000pt" viewBox="0 0 217.000000 218.000000"
 preserveAspectRatio="xMidYMid meet">

<g transform="translate(0.000000,218.000000) scale(0.100000,-0.100000)"
fill="#000000" stroke="none">
<path d="M935 2123 c-66 -9 -188 -45 -264 -77 -237 -100 -452 -316 -547 -550
-66 -161 -77 -223 -77 -406 0 -146 2 -176 25 -261 63 -233 193 -429 380 -569
122 -93 291 -170 421 -194 l37 -7 0 365 0 365 -132 3 -133 3 -3 148 -3 147
136 0 135 0 0 118 c0 158 14 244 50 318 74 151 228 217 452 194 55 -5 106 -10
114 -10 11 0 14 -26 14 -135 l0 -135 -87 0 c-99 0 -142 -16 -177 -63 -18 -25
-21 -46 -25 -158 l-3 -129 146 0 c171 0 156 20 123 -170 l-22 -125 -122 -3
-123 -3 0 -364 c0 -305 2 -365 14 -365 8 0 53 11 101 25 545 158 867 709 730
1251 -120 476 -536 799 -1019 793 -61 -1 -124 -4 -141 -6z"/>
</g>
</svg>
