<?xml version="1.0" encoding="utf-8"?>
<!-- Generator: Adobe Illustrator 25.4.1, SVG Export Plug-In . SVG Version: 6.00 Build 0)  -->
<svg version="1.1" id="レイヤー_1" xmlns="http://www.w3.org/2000/svg" xmlns:xlink="http://www.w3.org/1999/xlink" x="0px"
	 y="0px" viewBox="0 0 217 218" style="enable-background:new 0 0 217 218;" xml:space="preserve">
<style type="text/css">
	.st0{fill:#FFFFFF;}
</style>
<g transform="translate(0.000000,218.000000) scale(0.100000,-0.100000)">
	<path class="st0" d="M935,2123c-66-9-188-45-264-77c-237-100-452-316-547-550c-66-161-77-223-77-406c0-146,2-176,25-261
		c63-233,193-429,380-569C574,167,743,90,873,66l37-7v365v365l-132,3l-133,3l-3,148l-3,147h136h135v118c0,158,14,244,50,318
		c74,151,228,217,452,194c55-5,106-10,114-10c11,0,14-26,14-135v-135h-87c-99,0-142-16-177-63c-18-25-21-46-25-158l-3-129h146
		c171,0,156,20,123-170l-22-125l-122-3l-123-3V425c0-305,2-365,14-365c8,0,53,11,101,25c545,158,867,709,730,1251
		c-120,476-536,799-1019,793C1015,2128,952,2125,935,2123z"/>
</g>
</svg>
