<?xml version="1.0" encoding="utf-8"?>
<!-- Generator: Adobe Illustrator 25.4.1, SVG Export Plug-In . SVG Version: 6.00 Build 0)  -->
<svg version="1.1" id="レイヤー_1" xmlns="http://www.w3.org/2000/svg" xmlns:xlink="http://www.w3.org/1999/xlink" x="0px"
	 y="0px" viewBox="0 0 504 504" style="enable-background:new 0 0 504 504;" xml:space="preserve">
<style type="text/css">
	.st0{fill:#FFFFFF;}
</style>
<g transform="translate(0.000000,504.000000) scale(0.100000,-0.100000)">
	<path class="st0" d="M1615,5034c-164-7-363-26-465-45C563,4876,164,4477,52,3890C9,3666,5,3557,5,2520s4-1146,47-1370
		C164,563,563,164,1150,52C1374,9,1483,5,2520,5s1146,4,1370,47c587,112,986,511,1098,1098c43,224,47,333,47,1370s-4,1146-47,1370
		c-112,589-514,989-1104,1099c-215,40-299,43-1259,46C2114,5036,1659,5035,1615,5034z M3660,4561c205-27,358-72,477-142
		c75-44,238-207,282-282c73-124,117-278,143-492c19-158,19-2092,0-2250c-26-214-70-368-143-492c-44-75-207-238-282-282
		c-124-73-278-117-492-143c-158-19-2092-19-2250,0c-214,26-368,70-492,143c-75,44-238,207-282,282c-73,124-117,278-143,492
		c-19,158-19,2092,0,2250c18,154,39,246,76,347c43,115,87,185,170,275c186,200,398,280,796,303C1738,4582,3557,4575,3660,4561z"/>
	<path class="st0" d="M3765,4153c-75-25-165-119-189-197c-73-233,147-453,380-380c84,26,172,115,198,198c22,71,17,153-15,220
		c-25,54-102,129-155,151C3925,4170,3825,4173,3765,4153z"/>
	<path class="st0" d="M2400,3810c-306-31-581-162-795-375c-343-343-465-845-319-1308c126-396,445-715,841-841c256-80,530-80,786,0
		c396,126,715,445,841,841c80,256,80,530,0,786c-126,396-445,715-841,841C2754,3804,2552,3826,2400,3810z M2720,3334
		c91-22,253-103,328-164c92-76,167-172,222-285c66-137,83-212,83-365s-17-228-83-365c-85-177-208-299-385-385c-137-66-211-83-365-83
		s-228,17-365,83c-177,86-300,208-385,385c-27,55-56,132-66,170c-24,96-24,294,0,390c24,97,105,258,166,333c130,158,334,274,531,302
		C2484,3361,2637,3354,2720,3334z"/>
</g>
</svg>
