<?xml version="1.0" standalone="no"?>
<!DOCTYPE svg PUBLIC "-//W3C//DTD SVG 20010904//EN"
 "http://www.w3.org/TR/2001/REC-SVG-20010904/DTD/svg10.dtd">
<svg version="1.0" xmlns="http://www.w3.org/2000/svg"
 width="1034.000000pt" height="851.000000pt" viewBox="0 0 1034.000000 851.000000"
 preserveAspectRatio="xMidYMid meet">

<g transform="translate(0.000000,851.000000) scale(0.100000,-0.100000)"
fill="#000000" stroke="none">
<path d="M6910 8430 c-412 -51 -801 -217 -1107 -474 -397 -332 -645 -764 -738
-1281 -35 -196 -30 -542 11 -739 8 -38 12 -71 9 -74 -2 -3 -69 1 -147 7 -1268
104 -2411 571 -3393 1387 -154 128 -552 523 -685 679 -51 61 -97 112 -102 113
-14 6 -134 -253 -178 -384 -195 -587 -125 -1224 192 -1753 147 -243 317 -427
593 -639 l30 -23 -85 6 c-253 18 -512 88 -750 204 -52 25 -99 48 -104 50 -12
5 0 -206 20 -339 122 -823 745 -1519 1542 -1721 50 -13 92 -26 92 -30 0 -6
-111 -31 -220 -49 -36 -6 -139 -14 -230 -17 -150 -5 -218 -1 -418 23 l-53 7
27 -74 c41 -118 146 -325 221 -439 364 -551 948 -891 1623 -946 l85 -6 -35
-30 c-54 -45 -363 -249 -474 -313 -503 -287 -1060 -465 -1668 -531 -186 -21
-618 -23 -791 -5 -66 7 -121 10 -123 8 -7 -7 235 -150 401 -239 595 -316 1261
-537 1925 -637 473 -71 1046 -85 1540 -36 1354 134 2540 678 3489 1600 980
953 1632 2275 1805 3660 30 242 40 406 40 686 l1 286 54 39 c165 119 422 352
579 524 154 167 429 520 407 520 -3 0 -79 -29 -168 -64 -181 -72 -335 -121
-540 -171 -143 -36 -440 -89 -458 -83 -6 2 20 24 57 49 291 194 545 482 704
799 63 126 127 287 118 296 -4 3 -42 -15 -85 -40 -307 -177 -727 -340 -1104
-428 l-137 -32 -104 100 c-293 279 -677 467 -1102 540 -108 19 -457 27 -566
14z"/>
</g>
</svg>
