<?xml version="1.0" encoding="utf-8"?>
<!-- Generator: Adobe Illustrator 25.4.1, SVG Export Plug-In . SVG Version: 6.00 Build 0)  -->
<svg version="1.1" id="レイヤー_1" xmlns="http://www.w3.org/2000/svg" xmlns:xlink="http://www.w3.org/1999/xlink" x="0px"
	 y="0px" viewBox="0 0 1034 851" style="enable-background:new 0 0 1034 851;" xml:space="preserve">
<style type="text/css">
	.st0{fill:#FFFFFF;}
</style>
<g transform="translate(0.000000,851.000000) scale(0.100000,-0.100000)">
	<path class="st0" d="M6910,8430c-412-51-801-217-1107-474c-397-332-645-764-738-1281c-35-196-30-542,11-739c8-38,12-71,9-74
		c-2-3-69,1-147,7c-1268,104-2411,571-3393,1387c-154,128-552,523-685,679c-51,61-97,112-102,113c-14,6-134-253-178-384
		c-195-587-125-1224,192-1753c147-243,317-427,593-639l30-23l-85,6c-253,18-512,88-750,204c-52,25-99,48-104,50c-12,5,0-206,20-339
		c122-823,745-1519,1542-1721c50-13,92-26,92-30c0-6-111-31-220-49c-36-6-139-14-230-17c-150-5-218-1-418,23l-53,7l27-74
		c41-118,146-325,221-439c364-551,948-891,1623-946l85-6l-35-30c-54-45-363-249-474-313c-503-287-1060-465-1668-531
		c-186-21-618-23-791-5c-66,7-121,10-123,8c-7-7,235-150,401-239c595-316,1261-537,1925-637c473-71,1046-85,1540-36
		c1354,134,2540,678,3489,1600c980,953,1632,2275,1805,3660c30,242,40,406,40,686l1,286l54,39c165,119,422,352,579,524
		c154,167,429,520,407,520c-3,0-79-29-168-64c-181-72-335-121-540-171c-143-36-440-89-458-83c-6,2,20,24,57,49
		c291,194,545,482,704,799c63,126,127,287,118,296c-4,3-42-15-85-40c-307-177-727-340-1104-428l-137-32l-104,100
		c-293,279-677,467-1102,540C7368,8435,7019,8443,6910,8430z"/>
</g>
</svg>
